<svg version="1.1" xmlns="http://www.w3.org/2000/svg" xmlns:xlink="http://www.w3.org/1999/xlink" width="30px" height="30px" viewBox="0,0,256,256"><g fill="#199e1c" fill-rule="nonzero" stroke="none" stroke-width="1" stroke-linecap="butt" stroke-linejoin="miter" stroke-miterlimit="10" stroke-dasharray="" stroke-dashoffset="0" font-family="none" font-weight="none" font-size="none" text-anchor="none" style="mix-blend-mode: normal"><g transform="scale(8.53333,8.53333)"><path d="M14,2c-0.552,0 -1,0.448 -1,1v1.19141c-5.11095,0.945 -9,5.42917 -9,10.80859c0,6.06329 4.93671,11 11,11c6.06329,0 11,-4.93671 11,-11c0,-5.37942 -3.88904,-9.86359 -9,-10.80859v-1.19141c0,-0.552 -0.448,-1 -1,-1zM22.99023,3.99023c-0.40692,0.00011 -0.77321,0.24676 -0.92633,0.62377c-0.15312,0.37701 -0.06255,0.80921 0.22907,1.09303l1,1c0.25082,0.26124 0.62327,0.36647 0.97371,0.27511c0.35044,-0.09136 0.62411,-0.36503 0.71547,-0.71547c0.09136,-0.35044 -0.01388,-0.72289 -0.27511,-0.97371l-1,-1c-0.18827,-0.19353 -0.4468,-0.30272 -0.7168,-0.30273zM15,6c4.98241,0 9,4.01759 9,9c0,4.98241 -4.01759,9 -9,9c-4.98241,0 -9,-4.01759 -9,-9c0,-4.98241 4.01759,-9 9,-9zM14.98438,7.98633c-0.55152,0.00862 -0.99193,0.46214 -0.98437,1.01367v4.27148c-0.61771,0.35663 -0.99874,1.01525 -1,1.72852c0.00056,0.71397 0.38169,1.37349 1,1.73047v1.26953c-0.0051,0.36064 0.18438,0.69608 0.49587,0.87789c0.3115,0.18181 0.69676,0.18181 1.00825,0c0.3115,-0.18181 0.50097,-0.51725 0.49587,-0.87789v-1.27148c0.61771,-0.35663 0.99874,-1.01525 1,-1.72852c-0.00056,-0.71397 -0.38169,-1.37349 -1,-1.73047v-4.26953c0.0037,-0.2703 -0.10218,-0.53059 -0.29351,-0.72155c-0.19133,-0.19097 -0.45182,-0.29634 -0.72212,-0.29212z"></path></g></g></svg>